<mxfile host="app.diagrams.net" modified="2022-10-17T10:08:21.195Z" agent="5.0 (Macintosh; Intel Mac OS X 10_14_6) AppleWebKit/537.36 (KHTML, like Gecko) Chrome/106.0.0.0 Safari/537.36 Edg/106.0.1370.47" etag="IwihAqjalfXXzLtGsRyi" version="20.4.1" type="github">
  <diagram id="Iu7iD4hqt-XvxUbMUL7d" name="第 1 页">
    <mxGraphModel dx="946" dy="615" grid="1" gridSize="10" guides="1" tooltips="1" connect="1" arrows="1" fold="1" page="1" pageScale="1" pageWidth="827" pageHeight="1169" math="0" shadow="0">
      <root>
        <mxCell id="0" />
        <mxCell id="1" parent="0" />
        <mxCell id="FrwC5swBPOKGouQg5t86-1" value="components/view" style="whiteSpace=wrap;html=1;align=left;verticalAlign=top;" vertex="1" parent="1">
          <mxGeometry x="90" y="50" width="770" height="630" as="geometry" />
        </mxCell>
        <mxCell id="FrwC5swBPOKGouQg5t86-4" value="GridView" style="whiteSpace=wrap;html=1;align=left;verticalAlign=top;" vertex="1" parent="1">
          <mxGeometry x="780" y="630" width="53" height="40" as="geometry" />
        </mxCell>
      </root>
    </mxGraphModel>
  </diagram>
</mxfile>
